<svg xmlns="http://www.w3.org/2000/svg" height="48" viewBox="0 96 960 960" width="48"><path d="M117.63 907.239v-71.804h115.218l-7-8q-59.478-62.239-87.478-124.598-28-62.359-28-123.598 0-114.435 67.934-204.913 67.935-90.478 177.609-122.239v80.065q-77 28.044-122.5 96.065-45.5 68.022-45.5 151.022 0 50 15.381 93.522 15.38 43.522 55.097 80.761l25.761 22.761V668.674h72.044v238.565H117.63ZM847.109 555.63h-77.305q-2.761-45.717-18.38-85.076-15.62-39.358-50.815-72.076l-25.761-22.761v107.609h-72.044V244.761H841.37v71.804H725.391l7.761 8q57.718 55.196 84.337 114.652 26.62 59.457 29.62 116.413ZM688.37 1037.8l-6.761-54.561q-18-5.239-37.642-16.119-19.641-10.881-31.119-22.881L564.522 965l-41.718-65.478 43.283-34.805q-5.717-19.76-5.598-37.119.12-17.359 5.598-37.359l-43.283-34.804 41.718-66.478 48.326 20.76q11.478-11 31.119-21.76 19.642-10.761 37.642-16l6.761-56.327h74.478l8.043 56.327q18.239 5.239 37.881 16.119 19.641 10.881 31.119 20.881l48.565-20 41.24 65.717-42.805 34.804q5.479 20 5.359 37.739-.12 17.74-5.359 37.5l42.805 34.805L888.456 965l-48.565-20.761q-11.478 12-31.119 22.881-19.642 10.88-37.881 16.119l-8.043 54.561H688.37Zm37.239-111.039q42.282 0 71.163-28.881 28.88-28.88 28.88-71.402 0-42.282-28.88-71.043-28.881-28.761-71.163-28.761-43.522 0-71.783 28.261-28.261 28.261-28.261 71.543 0 43.522 28.261 71.902 28.261 28.381 71.783 28.381Z"/></svg>